<?xml version="1.0" standalone="no"?>
<!DOCTYPE svg PUBLIC "-//W3C//DTD SVG 20010904//EN"
 "http://www.w3.org/TR/2001/REC-SVG-20010904/DTD/svg10.dtd">
<svg version="1.0" xmlns="http://www.w3.org/2000/svg"
 width="300.000000pt" height="246.000000pt" viewBox="0 0 300.000000 246.000000"
 preserveAspectRatio="xMidYMid meet">
<metadata>
Created by potrace 1.10, written by Peter Selinger 2001-2011
</metadata>
<g transform="translate(0.000000,246.000000) scale(0.100000,-0.100000)"
fill="#000000" stroke="none">
<path d="M767 2454 c-4 -4 -7 -15 -7 -25 0 -18 241 -443 266 -469 16 -17 47
-4 52 21 1 8 -58 118 -131 244 -129 221 -155 254 -180 229z"/>
<path d="M1480 2275 c0 -163 2 -186 16 -192 9 -3 24 -2 33 4 14 9 16 37 19
192 l2 181 -35 0 -35 0 0 -185z"/>
<path d="M2213 2448 c-5 -7 -47 -78 -93 -158 -46 -80 -103 -178 -127 -218 -24
-40 -43 -79 -43 -86 0 -19 27 -39 43 -33 7 3 60 85 116 183 57 99 118 204 137
234 24 41 30 59 23 72 -11 21 -42 24 -56 6z"/>
<path d="M1157 2443 c-13 -12 -7 -41 38 -210 49 -178 65 -208 97 -176 17 17
16 23 -11 123 -16 58 -37 137 -47 175 -10 39 -22 76 -27 83 -10 13 -39 16 -50
5z"/>
<path d="M1824 2438 c-5 -7 -28 -85 -52 -173 -24 -88 -46 -167 -49 -176 -2 -9
3 -23 12 -32 34 -35 49 -7 99 178 26 97 46 184 44 193 -4 21 -43 28 -54 10z"/>
<path d="M577 2113 c-19 -19 5 -51 129 -176 75 -75 140 -137 145 -137 9 0 39
29 39 38 0 4 -62 69 -138 145 -126 126 -157 149 -175 130z"/>
<path d="M2272 1980 c-121 -125 -133 -140 -123 -159 7 -11 18 -21 25 -21 8 0
74 61 147 135 140 140 163 178 109 181 -20 1 -53 -27 -158 -136z"/>
<path d="M1405 1981 c-169 -22 -338 -106 -467 -233 -268 -266 -314 -696 -109
-1011 235 -360 698 -481 1071 -280 198 107 336 282 403 511 31 110 31 303 -1
416 -81 284 -294 498 -572 574 -85 24 -236 34 -325 23z m262 -37 c139 -32 239
-78 333 -153 84 -67 114 -100 175 -192 136 -205 163 -496 68 -719 -58 -135
-153 -258 -264 -342 -61 -46 -173 -97 -275 -124 -89 -24 -111 -26 -219 -21
-141 6 -218 27 -349 95 -169 89 -301 247 -367 439 -31 93 -33 105 -33 243 0
91 4 162 13 190 90 309 307 518 611 586 79 17 227 17 307 -2z"/>
<path d="M231 1916 c-6 -7 -9 -20 -6 -27 3 -8 92 -63 197 -124 105 -60 211
-121 235 -135 34 -20 46 -23 60 -14 40 25 21 46 -107 121 -69 40 -132 76 -140
80 -8 4 -55 31 -104 60 -94 56 -116 62 -135 39z"/>
<path d="M2530 1800 c-124 -71 -229 -136 -234 -144 -11 -16 8 -46 29 -46 7 0
95 47 195 105 100 58 184 105 185 105 2 0 25 14 50 31 34 23 45 37 43 53 -2
12 -11 22 -23 23 -11 2 -121 -56 -245 -127z"/>
<path d="M13 1790 c68 -97 74 -182 19 -270 -37 -60 -40 -70 -11 -44 30 27 58
87 65 136 7 54 -25 144 -63 179 l-27 24 17 -25z"/>
<path d="M235 1519 c-4 -12 -3 -25 2 -30 5 -5 92 -32 193 -59 192 -53 215 -53
208 -6 -3 18 -27 27 -178 68 -200 54 -216 56 -225 27z"/>
<path d="M2579 1496 c-193 -53 -189 -51 -189 -74 0 -45 20 -44 210 7 101 27
187 54 192 59 6 6 7 19 3 31 -9 29 -32 27 -216 -23z"/>
<path d="M39 1194 c-9 -11 -10 -20 -2 -32 9 -15 40 -17 269 -20 142 -1 269 0
281 3 25 6 30 34 11 53 -9 9 -85 12 -279 12 -231 0 -268 -2 -280 -16z"/>
<path d="M2430 1195 c-6 -8 -10 -22 -8 -32 3 -17 23 -18 278 -21 246 -2 276
-1 287 14 9 12 9 22 2 35 -9 18 -27 19 -278 19 -223 0 -271 -2 -281 -15z"/>
<path d="M426 919 c-194 -52 -218 -66 -182 -102 13 -13 29 -11 123 14 243 65
267 73 271 93 4 17 -14 47 -27 45 -3 0 -87 -23 -185 -50z"/>
<path d="M2402 958 c-19 -19 -14 -48 11 -58 12 -5 94 -28 181 -50 88 -23 163
-43 167 -46 4 -2 15 3 23 12 38 37 14 51 -165 98 -91 24 -174 46 -185 50 -11
3 -25 1 -32 -6z m282 -92 c21 -4 36 -9 34 -12 -8 -8 -118 19 -112 27 3 5 13 5
22 0 9 -4 34 -11 56 -15z"/>
<path d="M635 708 c-27 -17 -124 -73 -215 -125 -91 -53 -173 -103 -183 -112
-17 -17 -17 -18 0 -40 l18 -22 238 137 c132 75 241 143 244 151 7 17 -15 43
-36 42 -9 0 -38 -14 -66 -31z"/>
<path d="M2300 725 c-7 -8 -10 -21 -7 -28 3 -8 58 -45 124 -82 65 -38 171
-100 236 -138 98 -57 120 -67 133 -56 32 26 12 52 -86 108 -52 30 -155 90
-228 133 -73 43 -139 78 -146 78 -8 0 -19 -7 -26 -15z"/>
<path d="M2155 534 c-9 -9 -15 -20 -13 -24 2 -4 62 -69 135 -145 105 -108 137
-136 155 -133 51 7 33 38 -108 179 -76 77 -142 139 -146 139 -3 0 -14 -7 -23
-16z"/>
<path d="M700 409 c-127 -131 -150 -170 -105 -177 29 -4 299 267 289 291 -4
11 -16 16 -33 16 -19 -2 -57 -34 -151 -130z"/>
<path d="M1007 363 c-13 -21 -56 -96 -97 -168 -40 -72 -82 -142 -92 -157 -23
-33 -23 -38 1 -38 11 0 23 12 31 30 7 17 16 33 21 36 5 2 2 -11 -6 -31 -27
-63 7 -41 50 32 119 206 165 288 165 298 0 15 -21 35 -37 35 -7 0 -23 -17 -36
-37z"/>
<path d="M1961 386 c-7 -8 -11 -21 -9 -28 8 -33 203 -358 214 -358 10 0 10 8
-2 36 -8 20 -11 33 -6 30 5 -3 15 -19 22 -36 8 -18 20 -30 31 -30 11 0 19 2
19 4 0 16 -230 392 -242 394 -8 2 -20 -4 -27 -12z"/>
<path d="M1243 283 c-4 -9 -23 -77 -43 -150 l-37 -133 37 0 c35 0 37 2 48 48
7 26 23 87 36 137 18 65 22 93 14 102 -15 18 -47 16 -55 -4z"/>
<path d="M1726 285 c-3 -8 11 -75 31 -150 l37 -135 33 0 c18 0 33 5 33 11 0
14 -69 269 -76 280 -9 15 -51 10 -58 -6z"/>
<path d="M1486 254 c-3 -9 -6 -69 -6 -135 l0 -119 35 0 35 0 0 123 c0 126 -6
147 -41 147 -9 0 -20 -7 -23 -16z"/>
</g>
</svg>
